<svg width="390" height="881" viewBox="0 0 390 881" fill="none" xmlns="http://www.w3.org/2000/svg">
<rect x="-28" y="-20" width="447" height="898" fill="#A00040"/>
<g filter="url(#filter0_f_201_61)">
<path d="M15.8643 631.603L-46.0481 554.306H77.7768L15.8643 631.603Z" fill="#FF005D"/>
<path d="M20.4748 537.547C20.4748 556.248 4.69851 571.407 -14.7626 571.407C-34.2237 571.407 -50 556.248 -50 537.547C-50 518.847 -34.2237 503.687 -14.7626 503.687C4.69851 503.687 20.4748 518.847 20.4748 537.547Z" fill="#FF005D"/>
<path d="M80.4114 539.599C80.4114 558.3 64.635 573.459 45.1739 573.459C25.7129 573.459 9.93652 558.3 9.93652 539.599C9.93652 520.899 25.7129 505.739 45.1739 505.739C64.635 505.739 80.4114 520.899 80.4114 539.599Z" fill="#FF005D"/>
</g>
<g filter="url(#filter1_f_201_61)">
<path d="M111.864 344.915L49.9519 267.619H173.777L111.864 344.915Z" fill="#FF005D"/>
<path d="M116.475 250.86C116.475 269.56 100.699 284.72 81.2374 284.72C61.7763 284.72 46 269.56 46 250.86C46 232.16 61.7763 217 81.2374 217C100.699 217 116.475 232.16 116.475 250.86Z" fill="#FF005D"/>
<path d="M176.411 252.912C176.411 271.612 160.635 286.772 141.174 286.772C121.713 286.772 105.937 271.612 105.937 252.912C105.937 234.212 121.713 219.052 141.174 219.052C160.635 219.052 176.411 234.212 176.411 252.912Z" fill="#FF005D"/>
</g>
<g filter="url(#filter2_f_201_61)">
<path d="M130.864 843.915L68.9519 766.619H192.777L130.864 843.915Z" fill="#FF005D"/>
<path d="M135.475 749.86C135.475 768.56 119.699 783.72 100.237 783.72C80.7763 783.72 65 768.56 65 749.86C65 731.16 80.7763 716 100.237 716C119.699 716 135.475 731.16 135.475 749.86Z" fill="#FF005D"/>
<path d="M195.411 751.912C195.411 770.612 179.635 785.772 160.174 785.772C140.713 785.772 124.937 770.612 124.937 751.912C124.937 733.212 140.713 718.052 160.174 718.052C179.635 718.052 195.411 733.212 195.411 751.912Z" fill="#FF005D"/>
</g>
<g filter="url(#filter3_f_201_61)">
<path d="M348.864 749.915L286.952 672.619H410.777L348.864 749.915Z" fill="#FF005D"/>
<path d="M353.475 655.86C353.475 674.56 337.699 689.72 318.237 689.72C298.776 689.72 283 674.56 283 655.86C283 637.16 298.776 622 318.237 622C337.699 622 353.475 637.16 353.475 655.86Z" fill="#FF005D"/>
<path d="M413.411 657.912C413.411 676.612 397.635 691.772 378.174 691.772C358.713 691.772 342.937 676.612 342.937 657.912C342.937 639.212 358.713 624.052 378.174 624.052C397.635 624.052 413.411 639.212 413.411 657.912Z" fill="#FF005D"/>
</g>
<g filter="url(#filter4_f_201_61)">
<path d="M372.864 369.915L310.952 292.619H434.777L372.864 369.915Z" fill="#FF005D"/>
<path d="M377.475 275.86C377.475 294.56 361.699 309.72 342.237 309.72C322.776 309.72 307 294.56 307 275.86C307 257.16 322.776 242 342.237 242C361.699 242 377.475 257.16 377.475 275.86Z" fill="#FF005D"/>
<path d="M437.411 277.912C437.411 296.612 421.635 311.772 402.174 311.772C382.713 311.772 366.937 296.612 366.937 277.912C366.937 259.212 382.713 244.052 402.174 244.052C421.635 244.052 437.411 259.212 437.411 277.912Z" fill="#FF005D"/>
</g>
<g filter="url(#filter5_f_201_61)">
<path d="M267.864 163.915L205.952 86.6189L329.777 86.6189L267.864 163.915Z" fill="#FF005D"/>
<path d="M272.475 69.8599C272.475 88.5603 256.699 103.72 237.237 103.72C217.776 103.72 202 88.5603 202 69.8599C202 51.1596 217.776 36 237.237 36C256.699 36 272.475 51.1596 272.475 69.8599Z" fill="#FF005D"/>
<path d="M332.411 71.9121C332.411 90.6124 316.635 105.772 297.174 105.772C277.713 105.772 261.937 90.6124 261.937 71.9121C261.937 53.2117 277.713 38.0521 297.174 38.0521C316.635 38.0521 332.411 53.2117 332.411 71.9121Z" fill="#FF005D"/>
</g>
<g filter="url(#filter6_f_201_61)">
<path d="M30.8643 163.915L-31.0481 86.6189L92.7768 86.6189L30.8643 163.915Z" fill="#FF005D"/>
<path d="M35.4748 69.8599C35.4748 88.5603 19.6985 103.72 0.237419 103.72C-19.2237 103.72 -35 88.5603 -35 69.8599C-35 51.1596 -19.2237 36 0.237419 36C19.6985 36 35.4748 51.1596 35.4748 69.8599Z" fill="#FF005D"/>
<path d="M95.4114 71.9121C95.4114 90.6124 79.635 105.772 60.1739 105.772C40.7129 105.772 24.9365 90.6124 24.9365 71.9121C24.9365 53.2117 40.7129 38.0521 60.1739 38.0521C79.635 38.0521 95.4114 53.2117 95.4114 71.9121Z" fill="#FF005D"/>
</g>
<g filter="url(#filter7_f_201_61)">
<path d="M237.864 553.915L175.952 476.619H299.777L237.864 553.915Z" fill="#FF005D"/>
<path d="M242.475 459.86C242.475 478.56 226.699 493.72 207.237 493.72C187.776 493.72 172 478.56 172 459.86C172 441.16 187.776 426 207.237 426C226.699 426 242.475 441.16 242.475 459.86Z" fill="#FF005D"/>
<path d="M302.411 461.912C302.411 480.612 286.635 495.772 267.174 495.772C247.713 495.772 231.937 480.612 231.937 461.912C231.937 443.212 247.713 428.052 267.174 428.052C286.635 428.052 302.411 443.212 302.411 461.912Z" fill="#FF005D"/>
</g>
<defs>
<filter id="filter0_f_201_61" x="-86.6" y="467.087" width="203.611" height="201.115" filterUnits="userSpaceOnUse" color-interpolation-filters="sRGB">
<feFlood flood-opacity="0" result="BackgroundImageFix"/>
<feBlend mode="normal" in="SourceGraphic" in2="BackgroundImageFix" result="shape"/>
<feGaussianBlur stdDeviation="18.3" result="effect1_foregroundBlur_201_61"/>
</filter>
<filter id="filter1_f_201_61" x="9.4" y="180.4" width="203.611" height="201.115" filterUnits="userSpaceOnUse" color-interpolation-filters="sRGB">
<feFlood flood-opacity="0" result="BackgroundImageFix"/>
<feBlend mode="normal" in="SourceGraphic" in2="BackgroundImageFix" result="shape"/>
<feGaussianBlur stdDeviation="18.3" result="effect1_foregroundBlur_201_61"/>
</filter>
<filter id="filter2_f_201_61" x="28.4" y="679.4" width="203.611" height="201.115" filterUnits="userSpaceOnUse" color-interpolation-filters="sRGB">
<feFlood flood-opacity="0" result="BackgroundImageFix"/>
<feBlend mode="normal" in="SourceGraphic" in2="BackgroundImageFix" result="shape"/>
<feGaussianBlur stdDeviation="18.3" result="effect1_foregroundBlur_201_61"/>
</filter>
<filter id="filter3_f_201_61" x="246.4" y="585.4" width="203.611" height="201.115" filterUnits="userSpaceOnUse" color-interpolation-filters="sRGB">
<feFlood flood-opacity="0" result="BackgroundImageFix"/>
<feBlend mode="normal" in="SourceGraphic" in2="BackgroundImageFix" result="shape"/>
<feGaussianBlur stdDeviation="18.3" result="effect1_foregroundBlur_201_61"/>
</filter>
<filter id="filter4_f_201_61" x="270.4" y="205.4" width="203.611" height="201.115" filterUnits="userSpaceOnUse" color-interpolation-filters="sRGB">
<feFlood flood-opacity="0" result="BackgroundImageFix"/>
<feBlend mode="normal" in="SourceGraphic" in2="BackgroundImageFix" result="shape"/>
<feGaussianBlur stdDeviation="18.3" result="effect1_foregroundBlur_201_61"/>
</filter>
<filter id="filter5_f_201_61" x="165.4" y="-0.599998" width="203.611" height="201.115" filterUnits="userSpaceOnUse" color-interpolation-filters="sRGB">
<feFlood flood-opacity="0" result="BackgroundImageFix"/>
<feBlend mode="normal" in="SourceGraphic" in2="BackgroundImageFix" result="shape"/>
<feGaussianBlur stdDeviation="18.3" result="effect1_foregroundBlur_201_61"/>
</filter>
<filter id="filter6_f_201_61" x="-71.6" y="-0.599998" width="203.611" height="201.115" filterUnits="userSpaceOnUse" color-interpolation-filters="sRGB">
<feFlood flood-opacity="0" result="BackgroundImageFix"/>
<feBlend mode="normal" in="SourceGraphic" in2="BackgroundImageFix" result="shape"/>
<feGaussianBlur stdDeviation="18.3" result="effect1_foregroundBlur_201_61"/>
</filter>
<filter id="filter7_f_201_61" x="135.4" y="389.4" width="203.611" height="201.115" filterUnits="userSpaceOnUse" color-interpolation-filters="sRGB">
<feFlood flood-opacity="0" result="BackgroundImageFix"/>
<feBlend mode="normal" in="SourceGraphic" in2="BackgroundImageFix" result="shape"/>
<feGaussianBlur stdDeviation="18.3" result="effect1_foregroundBlur_201_61"/>
</filter>
</defs>
</svg>
